<svg version="1.2" xmlns="http://www.w3.org/2000/svg" viewBox="0 0 1024 256" width="1024" height="256"><style>.a{fill:#fff}</style><path class="a" d="m339.5 21.7c-0.3 0.1-1.7 0.5-3.1 0.7-1.4 0.3-3.8 1-5.5 1.7-1.6 0.7-4 2-5.2 2.8-1.3 0.9-3.8 3.1-5.6 4.9-1.8 1.7-3.2 3.2-3.1 3.3 0.1 0-0.2 0.6-0.8 1.2-0.5 0.6-0.8 1.1-0.7 1.1 0.2 0 0 0.1-0.4 0.4-0.3 0.2-0.6 0.5-0.4 0.7 0.1 0.2 0 0.4-0.2 0.4-0.3 0-0.3 0.2-0.2 0.4 0.1 0.2 0 0.4-0.2 0.4-0.2 0-0.3 0.2-0.2 0.4 0.1 0.2 0 0.4-0.2 0.4-0.2 0-0.3 0.3-0.2 0.6 0.1 0.3 0 0.6-0.2 0.6-0.2 0-0.3 0.1-0.2 0.4 0.1 0.2 0 0.3-0.2 0.3-0.2 0-0.3 0.3-0.2 0.6 0.1 0.4 0 0.6-0.2 0.6-0.2 0-0.3 0.3-0.2 0.6 0.1 0.3 0 0.6-0.2 0.6-0.2 0-0.3 0.4-0.2 0.8 0.1 0.4 0.1 0.8-0.1 0.8-0.1 0-0.2 0.5-0.2 1.2 0.1 0.6 0 1.1-0.2 1.1-0.1 0-0.2 0.7-0.2 1.6 0.1 0.9 0 1.6-0.2 1.6-0.1 0-0.2 12.7-0.2 28.2 0.1 18.7 0 28.3-0.3 28.3-0.2 0-0.3 0.2-0.2 0.6 0.1 0.3 0.1 0.5-0.2 0.5-0.2 0-0.3 0.3-0.2 0.6 0.2 0.4 0.1 0.6-0.1 0.6-0.3 0-0.4 0.2-0.2 0.4 0.1 0.2 0 0.4-0.2 0.4-0.3 0-0.3 0.2-0.2 0.4 0.1 0.2 0 0.4-0.2 0.4-0.2 0-0.3 0.2-0.2 0.4 0.1 0.2-0.2 0.6-0.6 0.9-0.4 0.2-0.7 0.5-0.6 0.7 0.1 0.1-0.4 0.7-1.1 1.3-0.7 0.6-2.3 1.6-3.6 2.2-1.3 0.6-3.2 1.2-4.1 1.3l-1.8 0.3v17.5c3.6 0.8 5.5 1.4 6.5 1.9 0.9 0.5 2.3 1.4 3 2 0.7 0.6 1.2 1.2 1.1 1.3-0.1 0.1 0.2 0.4 0.6 0.7 0.4 0.3 0.7 0.7 0.6 0.9-0.1 0.2 0 0.4 0.2 0.4 0.2 0 0.3 0.2 0.2 0.4-0.1 0.2-0.1 0.4 0.2 0.4 0.2 0 0.3 0.1 0.2 0.4-0.2 0.2-0.1 0.3 0.2 0.3 0.2 0 0.3 0.3 0.1 0.6-0.1 0.4 0 0.6 0.2 0.6 0.3 0 0.3 0.3 0.2 0.6-0.1 0.3 0 0.6 0.2 0.6 0.3 0 0.4 9.6 0.3 28.2 0 15.6 0.1 28.3 0.2 28.3 0.2 0 0.3 0.7 0.2 1.6 0 0.8 0.1 1.5 0.2 1.5 0.2 0 0.3 0.6 0.2 1.2 0 0.7 0.1 1.2 0.2 1.2 0.2 0 0.2 0.3 0.1 0.8-0.1 0.4 0 0.8 0.2 0.8 0.2 0 0.3 0.2 0.2 0.6-0.1 0.3 0 0.5 0.2 0.5 0.2 0 0.3 0.3 0.2 0.6-0.1 0.4 0 0.6 0.2 0.6 0.2 0 0.3 0.2 0.2 0.4-0.1 0.2 0 0.4 0.2 0.4 0.2 0 0.3 0.3 0.2 0.6-0.1 0.3 0 0.6 0.2 0.6 0.2 0 0.3 0.2 0.2 0.4-0.1 0.2 0 0.4 0.2 0.4 0.2 0 0.3 0.1 0.2 0.4-0.1 0.2-0.1 0.3 0.2 0.3 0.2 0 0.3 0.2 0.2 0.4-0.2 0.3-0.1 0.4 0.2 0.4 0.2 0 0.3 0.2 0.1 0.4-0.1 0.2 0.3 0.7 0.7 1 0.5 0.3 0.8 0.6 0.6 0.6-0.1 0 0.3 0.7 1.1 1.5 0.8 0.8 1.4 1.6 1.4 1.7 0 0.2 0.7 1 1.6 1.8 0.8 0.8 2 1.9 2.6 2.4 0.6 0.5 2.2 1.6 3.6 2.5 1.4 0.9 4 2.2 5.7 2.8 1.7 0.6 4.7 1.3 6.7 1.5l3.5 0.6c0.2-15.4 0.1-17.7-0.3-18.1-0.2-0.3-1-0.4-1.5-0.4-0.6 0.1-1.1 0-1.1-0.2 0-0.2-0.3-0.3-0.6-0.2-0.3 0.1-0.6 0-0.6-0.3 0-0.3-0.1-0.4-0.2-0.2-0.1 0.1-0.5 0-0.8-0.3-0.3-0.3-0.7-0.5-1-0.4-0.2 0.1-0.4 0-0.4-0.2 0-0.2-0.1-0.3-0.4-0.2-0.2 0.1-0.4-0.1-0.5-0.4-0.1-0.3-0.4-0.5-0.6-0.4-0.2 0.1-1.1-0.5-1.9-1.4-0.8-1-1.9-2.7-2.4-3.9l-1-2.1c-0.5-59.6-0.5-60.5-1.3-63.2-0.5-1.5-1.2-3.6-1.7-4.7-0.4-1.1-1.6-3.1-2.5-4.5-1-1.4-2.3-3.1-2.9-3.8-0.7-0.6-1.3-1.4-1.2-1.8 0-0.4 0.8-1.7 1.8-2.8 1.1-1.2 2.5-3.1 3.2-4.3 0.7-1.1 1.8-3.5 2.4-5.4 0.6-1.8 1.3-4.5 1.6-5.9 0.2-1.6 0.4-12.9 0.4-30.2 0-23.3 0.1-28 0.6-29.8 0.3-1.2 1-2.9 1.5-3.7 0.5-0.9 1.5-2.1 2.2-2.8 0.7-0.6 1.5-1.2 1.9-1.2 0.4-0.1 0.7-0.3 0.7-0.5 0.1-0.2 0.3-0.3 0.5-0.2 0.3 0.1 0.4 0 0.4-0.2 0-0.2 0.2-0.3 0.4-0.2 0.2 0.1 0.4 0 0.4-0.2 0-0.2 0.2-0.3 0.4-0.2 0.2 0.1 0.4 0 0.4-0.2 0-0.2 0.3-0.3 0.6-0.2 0.3 0.1 0.6 0 0.6-0.2 0-0.2 0.8-0.4 1.9-0.3 1.1 0.1 2 0 2.1-0.1 0.1-0.1 1.5-0.1 3.1 0.1 1.6 0.2 4.5 0.8 6.4 1.3 2 0.6 5.3 1.9 7.4 3 2.1 1.2 5 3 6.4 4.2 1.4 1.2 3.5 3.4 4.7 4.9 1.2 1.5 2.9 4.1 3.8 5.7 0.9 1.6 1.6 3 1.5 3.1 0 0 0.3 0.6 0.6 1.3 0.4 0.7 0.7 1.4 0.8 1.6 0.1 0.2 0.1 0.4 0.1 0.5 0 0.1 0.1 0.3 0.1 0.5 0.1 0.2 0.3 0.5 0.4 0.8 0.2 0.2 0.2 0.6 0.1 0.9-0.1 0.2 0 0.4 0.2 0.5 0.2 0.2 0.3 0.5 0.2 0.8-0.1 0.4 0 0.7 0.2 0.8 0.2 0.1 0.3 0.8 0.3 1.6-0.1 0.7 0 1.4 0.2 1.6 0.2 0.2 0.3 24.6 0.3 54.2 0 29.6 0.1 54 0.2 54.3 0.1 0.2 0.1 0.9 0.1 1.6-0.1 0.7 0 1.5 0.2 1.8 0.1 0.3 0.2 0.6 0.1 0.8-0.1 0.1 0 0.5 0.3 0.8 0.2 0.3 0.3 0.5 0.1 0.4-0.3 0-0.2 0.3 0.2 0.6 0.3 0.4 0.4 0.6 0.3 0.6-0.2 0 0.3 1.3 1.1 2.9 1.1 2 2.4 3.8 5 6.3 2.8 2.8 4.2 3.9 6.7 5.1 2.5 1.3 3.6 1.6 5.3 1.6 1.7 0 2.8-0.3 5.3-1.6 2.5-1.2 3.9-2.3 6.7-5.1 2.6-2.5 3.9-4.3 5-6.3 0.8-1.6 1.3-2.9 1.1-2.9-0.1 0 0-0.2 0.3-0.6 0.4-0.3 0.5-0.6 0.2-0.6-0.2 0.1-0.1-0.1 0.1-0.4 0.3-0.3 0.4-0.7 0.3-0.8-0.1-0.2 0-0.5 0.1-0.8 0.2-0.3 0.3-1.1 0.2-1.8 0-0.7 0-1.4 0.1-1.6 0.1-0.3 0.2-24.7 0.2-54.3 0-29.6 0.1-54 0.3-54.2 0.2-0.2 0.3-0.9 0.2-1.6 0-0.8 0.1-1.5 0.3-1.6 0.2-0.1 0.3-0.4 0.2-0.8-0.1-0.3 0-0.6 0.2-0.8 0.2-0.1 0.3-0.3 0.2-0.5-0.1-0.3 0-0.7 0.3-1 0.3-0.4 0.3-0.6 0.1-0.6-0.2 0-0.2-0.2 0-0.5 0.3-0.3 0.5-0.6 0.5-0.8 0.1-0.1 0.3-0.8 0.7-1.5 0.3-0.6 0.5-1.2 0.5-1.2-0.1-0.1 0.6-1.5 1.5-3.1 0.9-1.6 2.6-4.2 3.8-5.7 1.2-1.5 3.3-3.7 4.7-4.9 1.4-1.2 4.3-3 6.4-4.2 2.1-1.1 5.4-2.4 7.4-3 1.9-0.5 4.8-1.1 6.4-1.3 1.6-0.2 3-0.2 3.1-0.1 0.1 0.1 1 0.2 2.1 0.1 1.1-0.1 1.9 0.1 1.9 0.3 0 0.2 0.3 0.3 0.6 0.2 0.3-0.1 0.6 0 0.6 0.2 0 0.2 0.2 0.3 0.4 0.2 0.2-0.1 0.4 0 0.4 0.2 0 0.2 0.2 0.3 0.4 0.2 0.2-0.1 0.4 0 0.4 0.2 0 0.2 0.1 0.3 0.4 0.2 0.2-0.1 0.4-0.1 0.4 0.2 0 0.2 0.1 0.3 0.4 0.2 0.2-0.1 0.3-0.1 0.3 0.2 0 0.2 0.2 0.3 0.4 0.2 0.3-0.2 1.1 0.5 2 1.5 0.9 1 1.9 2.4 2.2 3.1 0.4 0.7 0.8 1.8 1.1 2.4 0.3 0.8 0.5 11.5 0.6 31.2 0.3 28.8 0.3 30.1 1.1 32.8 0.4 1.5 1.3 3.8 1.8 5.1 0.6 1.3 1.9 3.4 2.8 4.7 0.9 1.3 2.2 2.8 2.7 3.3 0.6 0.6 1.1 1.3 1 1.7 0 0.4-0.9 1.7-1.9 2.9-1.1 1.3-2.8 3.8-3.7 5.6-1 1.9-2.2 4.7-2.7 6.3-0.8 2.9-0.8 3.1-1.1 33.2l-0.2 30.2c-1.5 3.3-2.6 5-3.4 6-0.8 0.9-1.7 1.5-1.9 1.4-0.2-0.1-0.5 0.1-0.6 0.4-0.1 0.3-0.3 0.5-0.5 0.4-0.3-0.1-0.4 0-0.4 0.2 0 0.2-0.2 0.3-0.4 0.2-0.3-0.1-0.7 0.1-1 0.4-0.3 0.3-0.7 0.4-0.8 0.3-0.1-0.2-0.2-0.1-0.2 0.2 0 0.3-0.3 0.4-0.6 0.3-0.3-0.1-0.6 0-0.6 0.2 0 0.2-0.5 0.3-1.1 0.2-0.5 0-1.3 0.1-1.5 0.4-0.4 0.4-0.5 2.7-0.4 9.3l0.1 8.8c5.5-0.8 8.5-1.5 10.2-2.1 1.7-0.6 4.3-1.9 5.7-2.8 1.4-0.9 3-2 3.6-2.5 0.6-0.5 1.7-1.5 2.4-2.3 0.8-0.8 1.9-1.9 2.6-2.7 0.6-0.7 1-1.2 0.9-1.2-0.2 0 0-0.3 0.5-0.6 0.4-0.4 0.6-0.6 0.4-0.6-0.2 0 0-0.3 0.5-0.6 0.4-0.3 0.8-0.8 0.7-1-0.2-0.2-0.1-0.4 0.1-0.4 0.3 0 0.4-0.1 0.2-0.4-0.1-0.2 0-0.4 0.2-0.4 0.3 0 0.3-0.1 0.2-0.3-0.1-0.3 0-0.4 0.2-0.4 0.2 0 0.3-0.2 0.2-0.4-0.1-0.2 0-0.4 0.2-0.4 0.2 0 0.3-0.3 0.2-0.6-0.1-0.3 0-0.6 0.2-0.6 0.2 0 0.3-0.2 0.2-0.4-0.1-0.2 0-0.4 0.2-0.4 0.2 0 0.3-0.2 0.2-0.6-0.1-0.3 0-0.6 0.2-0.6 0.2 0 0.3-0.2 0.2-0.5-0.1-0.4 0-0.6 0.2-0.6 0.2 0 0.3-0.4 0.2-0.8-0.1-0.5-0.1-0.8 0.1-0.8 0.1 0 0.2-0.5 0.2-1.2-0.1-0.6 0-1.2 0.2-1.2 0.1 0 0.2-0.7 0.2-1.5-0.1-0.9 0-1.6 0.2-1.6 0.1 0 0.2-12.7 0.2-28.3-0.1-18.6 0-28.2 0.3-28.2 0.2 0 0.3-0.3 0.2-0.6-0.1-0.3-0.1-0.6 0.2-0.6 0.2 0 0.3-0.2 0.2-0.6-0.2-0.3-0.1-0.6 0.1-0.6 0.3 0 0.4-0.1 0.2-0.3-0.1-0.3 0-0.4 0.2-0.4 0.3 0 0.3-0.2 0.2-0.4-0.1-0.2 0-0.4 0.2-0.4 0.2 0 0.3-0.2 0.2-0.4-0.1-0.2 0.2-0.6 0.6-0.9 0.4-0.3 0.7-0.6 0.6-0.7-0.1-0.1 0.4-0.7 1.1-1.3 0.7-0.6 2.1-1.5 3-2 1-0.5 2.9-1.1 4.1-1.4l2.4-0.5v-17.5c-2.7-0.4-3.8-0.7-4.1-0.8-0.3-0.2-1.4-0.7-2.4-1.1-0.9-0.4-2.3-1.3-3-1.9-0.7-0.6-1.2-1.2-1.1-1.3 0.1-0.2-0.2-0.5-0.6-0.7-0.4-0.3-0.7-0.7-0.6-0.9 0.1-0.2 0-0.4-0.2-0.4-0.2 0-0.3-0.2-0.2-0.4 0.1-0.2 0.1-0.4-0.2-0.4-0.2 0-0.3-0.2-0.2-0.4 0.2-0.2 0.1-0.4-0.2-0.4-0.2 0-0.3-0.2-0.1-0.6 0.1-0.3 0-0.6-0.2-0.6-0.3 0-0.3-0.2-0.2-0.5 0.1-0.4 0-0.6-0.2-0.6-0.3 0-0.4-9.6-0.3-28.3 0-15.5-0.1-28.2-0.2-28.2-0.2 0-0.3-0.7-0.2-1.6 0-0.9-0.1-1.6-0.2-1.6-0.2 0-0.3-0.5-0.2-1.1 0-0.7-0.1-1.2-0.2-1.2-0.2 0-0.2-0.4-0.1-0.8 0.1-0.4 0-0.8-0.2-0.8-0.2 0-0.3-0.3-0.2-0.6 0.1-0.3 0-0.6-0.2-0.6-0.2 0-0.3-0.2-0.2-0.6 0.1-0.3 0-0.6-0.2-0.6-0.2 0-0.3-0.1-0.2-0.3 0.1-0.3 0-0.4-0.2-0.4-0.2 0-0.3-0.3-0.2-0.6 0.1-0.3 0-0.6-0.2-0.6-0.2 0-0.3-0.2-0.2-0.4 0.1-0.2 0-0.4-0.2-0.4-0.2 0-0.3-0.2-0.2-0.4 0.1-0.2 0.1-0.4-0.2-0.4-0.2 0-0.3-0.2-0.2-0.4 0.2-0.2-0.1-0.5-0.4-0.7-0.4-0.3-0.6-0.4-0.4-0.4 0.1 0-0.2-0.5-0.7-1.1-0.6-0.6-0.9-1.2-0.8-1.2 0.1-0.1-1.3-1.6-3.1-3.3-1.8-1.8-4.3-4-5.6-4.9-1.2-0.8-3.6-2.1-5.2-2.8-1.7-0.7-4.1-1.4-5.5-1.7-1.4-0.2-2.8-0.5-3.2-0.6-0.3-0.2-2.6-0.3-5.1-0.4-2.8-0.1-4.6 0-4.9 0.3-0.2 0.2-0.9 0.3-1.5 0.3-0.7-0.1-1.4 0-1.7 0.2-0.3 0.1-0.7 0.1-0.9 0-0.2-0.1-0.5 0-0.6 0.2-0.1 0.3-0.6 0.4-1.1 0.3-0.5 0-1.1 0.1-1.3 0.2-0.3 0.2-0.7 0.2-0.8 0.1-0.2-0.1-0.5 0.1-0.8 0.3-0.3 0.3-0.5 0.3-0.5 0.1 0-0.2-0.2-0.1-0.6 0.2-0.3 0.3-0.7 0.5-0.9 0.3-0.1-0.1-0.5-0.1-0.8 0.2-0.3 0.3-0.5 0.4-0.5 0.2 0-0.2-0.5 0-1.1 0.3-0.7 0.3-1.3 0.6-1.4 0.6-0.1 0-1.1 0.5-2.3 1.1-1.1 0.5-2.2 1.1-2.4 1.1-0.2 0-1.5 0.7-2.8 1.5-1.2 0.8-3.4 2.3-4.7 3.3-1.3 1-3.7 3.1-5.4 4.8-1.7 1.6-4.2 4.3-5.5 6-1.3 1.8-3.1 4.4-4 5.9-0.9 1.5-2.3 4.4-3.1 6.3-0.8 1.9-2 5.6-2.7 8l-1.2 4.6c-0.4 100-0.5 112.9-0.9 113.8-0.3 0.7-0.7 1.3-0.9 1.3-0.2 0-0.6-0.6-0.9-1.3-0.4-0.9-0.5-13.8-0.7-57.5l-0.2-56.3c-1.9-7-3.1-10.7-3.9-12.6-0.8-1.9-2.2-4.8-3.1-6.3-0.9-1.5-2.7-4.1-4-5.9-1.3-1.7-3.8-4.4-5.5-6-1.7-1.7-4.1-3.8-5.4-4.8-1.3-1-3.5-2.5-4.7-3.3-1.3-0.8-2.6-1.5-2.8-1.5-0.2 0-1.3-0.6-2.4-1.1-1.2-0.6-2.2-1.1-2.3-1.1-0.1 0-0.7-0.3-1.4-0.6-0.6-0.3-1.1-0.5-1.1-0.3 0 0.2-0.2 0.1-0.5-0.2-0.3-0.3-0.7-0.3-0.8-0.2-0.2 0.2-0.6 0-0.9-0.3-0.4-0.3-0.6-0.4-0.6-0.2 0 0.2-0.2 0.2-0.5-0.1-0.3-0.2-0.6-0.4-0.8-0.3-0.1 0.1-0.5 0.1-0.8-0.1-0.2-0.1-0.8-0.2-1.3-0.2-0.5 0.1-1 0-1.1-0.3-0.1-0.2-0.4-0.3-0.6-0.2-0.2 0.1-0.6 0.1-0.9 0-0.3-0.2-1-0.3-1.7-0.2-0.8 0-1.4-0.1-1.5-0.3-0.1-0.3-2.1-0.4-4.9-0.3-2.6 0-4.9 0.2-5.2 0.3z"/><path class="a" d="m75.4 16.2q-0.3 6.9-0.3 15.3 0 8.4 0.9 17.4-4.2 4.8-11.4 4.8-9 0-9-14.4 0-0.6 0-4.5 0-3.9 0-6.9 0.3-3.3 1.2-7.5 2.1-7.2 9.3-7.2 7.2 0 9.3 3zm-19.2 147q0-58.8 6-67.8 2.1-3.3 5.1-3.3 3 0 9.9 3.3-1.5 25.5-1.5 55.5 0 0 0.6 66.3 0 9.3-4.2 13.2-3.9 3.6-7.5 3.6-3.3 0-6.9-1.8-1.5-39-1.5-69zm237 72.3q-4.8 6.6-13.8 6.6-2.4 0-4.8-0.6-6.6-15-9.9-42.3-3-27.6-4.5-36.3-32.7-1.2-65.4-1.2-32.7 0-58.5 2.7-2.7 12.3-6 36.9-3 24.3-4.5 32.7-10.8 8.7-19.5 2.4 0.9-7.2 2.7-22.8 1.8-15.6 3-26.4 1.5-11.1 4.2-27.9 2.7-16.8 5.1-28.8 2.7-12.3 7.2-27.3 4.5-15.3 9.3-26.1 4.8-10.8 11.7-21.9 7.2-11.1 15.3-18 18.6-15.3 40.5-15.3 21.9 0 36.3 16.8 14.7 16.8 22.2 44.1 7.5 27.3 12 54.9 4.5 27.6 8.7 56.4 4.2 28.8 8.7 41.4zm-55.8-166.5q-5.7-14.7-14.7-22.8-9-8.4-22.2-8.4-13.2 0-25.5 12.9-12.3 12.9-19.5 32.1-12.9 35.7-16.2 66 30-3.3 60.3-3.3 30.3 0 58.5 1.8-1.2-4.5-4.5-21.3-3.3-16.8-6.9-29.4-3.3-12.9-9.3-27.6z"/><path class="a" d="m535.9 115.5q15.3-23.4 44.1-23.4 28.8 0 45.9 23.4 17.4 23.4 17.4 53.4 0 29.7-18.9 50.4-18.9 20.7-48 20.7-29.1 0-42.3-16.2-13.2-16.5-13.2-46.2 0-38.7 15-62.1zm13.2 15.9q-3.9 11.7-6 23.4-1.8 11.7-1.8 21.9 0 9.9 1.5 18.3 1.5 8.1 5.1 16.2 3.6 7.8 10.8 12.6 7.2 4.5 17.1 4.5 20.1 0 33.6-16.5 13.8-16.5 13.8-39.9 0-23.4-12.6-45.3-12.3-22.2-30.3-22.2-10.8 0-18.9 7.5-8.1 7.5-12.3 19.5zm125.4 46.5l2.7-134.4q0-15.6-1.8-21.3 5.4-4.8 16.5-4.8 4.5 32.1 4.5 82.5 0 15-2.7 69.6 14.1-75.9 50.4-75.9 12.9 0 19.8 13.8 7.2 13.5 9 33 1.8 19.5 3 39 3 46.8 16.8 46.8 0.3 0 5.7-1.8 12-3.6 13.5-1.8 0 3.3-9.3 8.4-9.3 4.8-17.1 4.8-13.2 0-20.4-13.5-6.9-13.8-8.7-33.3-1.5-19.5-2.4-38.7-0.6-19.5-3.9-33-3.3-13.8-11.1-13.8-9.6 0-17.7 21-7.8 20.7-12.3 45.9-4.5 25.2-11.1 46.2-6.3 20.7-12.9 20.7-10.5 0-10.5-59.4zm165.9-158.7q-0.3 6.9-0.3 15.3 0 8.4 0.9 17.4-4.2 4.8-11.4 4.8-9 0-9-14.4 0-0.6 0-4.5 0-3.9 0-6.9 0.3-3.3 1.2-7.5 2.1-7.2 9.3-7.2 7.2 0 9.3 3zm-19.2 147q0-58.8 6-67.8 2.1-3.3 5.1-3.3 3 0 9.9 3.3-1.5 25.5-1.5 55.5 0 0 0.6 66.3 0 9.3-4.2 13.2-3.9 3.6-7.5 3.6-3.3 0-6.9-1.8-1.5-39-1.5-69zm58.2-51.9q-13.5 0-18.3-6.6 0-4.8 3.9-7.5 4.2-2.7 9-3.3 4.8-0.9 15.6-1.5 0.9-8.1 0.9-20.7 0.3-12.9 0.6-21.9 0.9-23.7 7.2-29.1 2.7-2.4 5.7-2.4 3.3 0 5.7 0.6 0.9 21.6 0.9 26.1l-1.8 45q0.6 0.3 3.3 0.3l21.6-0.9q23.4 0 23.4 7.2 0 10.2-8.4 12-3.9 0.9-9.3 0.9-5.1 0-13.5-1.2-8.1-1.5-11.7-1.5-3.6 0-4.8 0.3-0.9 8.7-0.9 17.4 0 8.4 0.3 21.3 0.6 12.6 2.4 30.3 2.1 17.7 8.7 30.6 6.6 12.6 16.8 12.6 5.1 0 12-3.9 6.9-4.2 10.5-4.2 3.9 0 6.6 1.8 3 1.5 3 3.6 0 6.3-12.9 12.3-12.6 5.7-21.6 5.7-33 0-41.1-62.4-2.4-18-3.6-61.8-4.8 0.9-10.2 0.9z"/></svg>